<svg height="53" viewBox="0 0 127 53" width="127" xmlns="http://www.w3.org/2000/svg"><g fill="#00ae00" fill-rule="evenodd" transform="translate(0 -9)"><text font-family="SourceSerifPro-Bold, Source Serif Pro" font-size="30" font-weight="bold" letter-spacing=".7"><tspan x="0" y="31">Fresh</tspan></text><text font-family="SourceSerifPro-Bold, Source Serif Pro" font-size="36" font-weight="bold" letter-spacing=".84"><tspan x="0" y="74"/> <tspan font-size="30" letter-spacing=".7" x="1.74" y="89.156">Organics</tspan></text><path d="m16.5 5.52631579c-9.9 2.21052632-12.21 9.03000001-14.498 14.74421051l2.079.7294737 1.045-2.5421053c.528.1878948 1.078.331579 1.474.331579 12.1 0 15.4-18.7894737 15.4-18.7894737-1.1 2.21052632-8.8 2.48684211-14.3 3.59210526-5.5 1.10526316-7.7 5.80263158-7.7 8.01315794 0 2.2105263 1.925 4.1447368 1.925 4.1447368 3.575-10.22368421 14.575-10.22368421 14.575-10.22368421z" fill-rule="nonzero" transform="translate(89 16)"/></g></svg>